<?xml version="1.0" encoding="UTF-8"?>
<svg id="Layer_2" data-name="Layer 2" xmlns="http://www.w3.org/2000/svg" viewBox="0 0 423.07 500">
  <defs>
    <style>
      .cls-1 {
        fill: #0f97b8;
      }

      .cls-2 {
        fill: #2d2d2d;
      }
    </style>
  </defs>
  <g id="Layer_1-2" data-name="Layer 1">
    <g>
      <g>
        <path class="cls-2" d="M200.02,92.04c96.96-7.06,167.29,89.84,127.8,179.58-14.88,33.81-46.88,52.14-56.01,90.05-4.72,19.59,2.98,44.12-23.97,49.37-23.04-1.56-49.38,2.32-72.03.06-6.45-.64-12.64-4.26-16.65-9.23-8.16-10.11-4.82-20.46-6.64-32.18-6.35-40.81-43.61-63.36-59.09-99.3-34.24-79.51,20.07-172.04,106.6-178.34ZM182.27,382.75h57.62l.92-1.54c-.35-26.75,10.54-52.1,25.75-73.48,11.81-16.6,26.49-28.48,34.94-47.65,31.82-72.22-28.69-150.79-106.42-138.47-68.25,10.82-104.61,87.28-70.23,147.53,6.57,11.52,16.3,20.67,24.38,31.08,18.5,23.83,33.24,51.44,33.04,82.52Z"/>
        <g>
          <path class="cls-2" d="M170.41,426.66h81.03c16.67,2.55,17.26,25.26.72,28.75l-82.37-.11c-16.63-3.35-15.91-25.88.62-28.65Z"/>
          <path class="cls-2" d="M175.96,470.42h69.94c16.57,2.6,15.99,26.78-.52,28.74-21.38,2.54-47.55-1.64-69.42-.08-16.1-3.43-16.31-25.41.01-28.66Z"/>
        </g>
      </g>
      <path class="cls-1" d="M373.77,198c4.58-.77,35.08-.87,39.01.14,14.62,3.75,14.21,26.82-4.72,28.6-7.16.67-30.76.94-36.77-1.28-12.83-4.74-11.06-25.19,2.48-27.46Z"/>
      <path class="cls-1" d="M10.78,198c7-1.19,29.28-.85,36.85-.17,16.39,1.47,18.62,27.37-3.08,29.02-7.45.56-29.29.85-35.63-1.4-13.19-4.66-11.07-25.25,1.86-27.45Z"/>
      <path class="cls-1" d="M334.96,322.51c4.11-.59,7.81.26,11.2,2.65s21.24,20.19,23.73,23.73c9.53,13.52-6.04,29.69-19.58,20.81-3.02-1.98-22.64-21.54-24.71-24.59-5.86-8.6-.91-21.14,9.36-22.6Z"/>
      <g>
        <path class="cls-1" d="M208.61.17c8.48-1.28,15.94,4.61,16.8,13.11.64,6.34.91,28.55-.27,34.23-3.22,15.53-26.91,15.22-28.69-2.82-.62-6.3-.81-28.42.65-33.85,1.36-5.11,6.2-9.87,11.51-10.67Z"/>
        <path class="cls-1" d="M68.09,55.64c4.02-.64,7.91.33,11.21,2.66,3.5,2.47,21.61,20.62,23.97,24.1,9.04,13.32-6.24,29.36-19.82,20.44-3.04-1.99-22.62-21.52-24.71-24.59-5.81-8.5-.83-21,9.35-22.61Z"/>
        <path class="cls-1" d="M349.74,55.64c11.92-1.89,20.5,9.93,15.28,20.83-1.92,4.01-19.23,21.19-23.43,24.64-14.12,11.65-30.8-3.85-22.64-17.71,1.96-3.33,20.49-21.64,24.16-24.53,1.88-1.48,4.23-2.85,6.62-3.23Z"/>
      </g>
      <path class="cls-1" d="M82.89,322.5c12.72-2.01,21.41,11.42,14.45,22.46-1.98,3.15-22.86,23.84-25.81,25.35-13.58,6.93-26.75-7.61-19.43-20.05,1.95-3.31,20.5-21.65,24.16-24.53,1.88-1.48,4.23-2.85,6.62-3.23Z"/>
    </g>
  </g>
</svg>