<?xml version="1.0" encoding="UTF-8"?>
<svg id="Layer_2" data-name="Layer 2" xmlns="http://www.w3.org/2000/svg" viewBox="0 0 494.91 500">
  <defs>
    <style>
      .cls-1 {
        fill: #0f97b8;
      }

      .cls-2 {
        fill: #2d2d2d;
      }
    </style>
  </defs>
  <g id="Layer_1-2" data-name="Layer 1">
    <g>
      <path class="cls-2" d="M33.01,162.01l392.32-.2c18.1,1.33,32.72,15.42,34.61,33.41v270.9c-4.8,31.22-30.31,35.56-57.53,33.41-17.21-1.36-20.63-17.45-37.28-18.7l-270.29.03c-16.65,1.44-20.11,17.31-37.31,18.67-27.01,2.14-52.21-2-57.53-32.8L.03,194.65c2.12-17.14,15.79-30.71,32.97-32.64ZM88.51,189.52h-52.07c-1.01,0-4.85,1.83-5.75,2.68-.57.55-2.98,4.5-2.98,4.84v237.15l.9.9h402.71l.9-.9v-237.15c0-.34-2.41-4.3-2.98-4.84-.9-.85-4.74-2.68-5.75-2.68h-97.22v167.03c0,13.4-17.08,28.63-30.48,28.51l-175.12.11c-14.42.53-32.18-14.59-32.18-29.22v-166.43ZM298.59,189.52H116.2v167.36h182.39v-167.36Z"/>
      <path class="cls-1" d="M285.23.05c5.06-.45,9.69,2.46,12.76,6.2,9.6,29.69,15.69,60.83,23.94,91.05.99,16.5-21.27,22.11-27.42,6.32l-22.27-88.53c-.25-7.58,5.34-14.35,12.98-15.04Z"/>
      <path class="cls-1" d="M387.52.67c10.13-1.74,18.58,7.38,16.26,17.46l-21.83,85.92c-6.34,15.81-28.95,9.97-27.23-6.76l22.09-87.46c1.59-4.36,6.09-8.36,10.7-9.16Z"/>
      <path class="cls-1" d="M192.49,53.03c3.89-.66,8.08-.14,11.29,2.27l59.9,59.89c9.58,12.95-6.57,30.25-21.35,18.34-19.65-15.84-37.42-40.17-56.89-56.88-7.16-7.38-3.38-21.85,7.05-23.62Z"/>
      <path class="cls-1" d="M477.82,53.03c12.6-2.14,21.41,10.57,14.87,21.49l-60.17,60.21c-12.41,9.4-28.13-5.45-20.42-18.62l60.45-60.53c1.4-1.13,3.51-2.25,5.27-2.55Z"/>
      <path class="cls-2" d="M355.64,207.74c14.74.79,31.7-1.6,46.19-.15,5.05.51,9.94,3.9,11.78,8.69s1.72,27.54,1.16,33.73c-.73,8.1-5.96,13.47-14.11,14.18-10.76.93-32.7,1.03-43.36-.03-8.02-.8-12.72-6.44-13.47-14.22-.61-6.23-.85-28.59,1.09-33.66,1.64-4.27,6.18-7.89,10.72-8.54Z"/>
    </g>
  </g>
</svg>