<svg xmlns="http://www.w3.org/2000/svg" viewBox="0 0 341 113.73"><defs><style>.a{fill:#006271}.b{fill:#5bb570}.c{fill:#008eaa}.d{fill:#373a36}.e{fill:#696a6a}</style></defs><path d="M109.14 1.49L107.78.14a.47.47 0 0 0-.67 0L52.92 54.32a.46.46 0 0 0 0 .68l1.35 1.36a.5.5 0 0 0 .68 0l54.19-54.19a.46.46 0 0 0 0-.68zM117.47 1.56L116.12.2a.5.5 0 0 0-.68 0L57.05 58.59a.46.46 0 0 0 0 .68l1.36 1.35a.48.48 0 0 0 .67 0l58.39-58.45a.39.39 0 0 0 0-.61zM125.94 1.9a.51.51 0 0 0-.14-.34L124.45.2a.46.46 0 0 0-.68 0L61.25 62.66a.45.45 0 0 0 0 .67l1.36 1.36a.48.48 0 0 0 .67 0L125.8 2.17a.54.54 0 0 0 .14-.27zM134.27 1.9a.51.51 0 0 0-.14-.34L132.78.2a.46.46 0 0 0-.68 0L65.38 66.92a.46.46 0 0 0 0 .68l1.36 1.4a.48.48 0 0 0 .67 0l66.72-66.76a.45.45 0 0 0 .14-.34zM142.53 1.56L141.18.2a.5.5 0 0 0-.68 0L69.58 71.06a.45.45 0 0 0 0 .67l1.36 1.36a.48.48 0 0 0 .67 0l70.92-70.85a.6.6 0 0 0 0-.68z" class="a"/><path d="M80 78a.45.45 0 0 0-.67 0L78 79.32a.46.46 0 0 0 0 .68l29.13 29.12a.48.48 0 0 0 .67 0l1.36-1.35a.46.46 0 0 0 0-.68zM75.81 82.1a.49.49 0 0 0-.34-.14.48.48 0 0 0-.33.14l-1.36 1.35a.46.46 0 0 0 0 .68l24.93 25.06a.51.51 0 0 0 .34.14.53.53 0 0 0 .34-.14l1.35-1.35a.46.46 0 0 0 0-.68zM71.68 86.3a.45.45 0 0 0-.68 0l-1.35 1.35a.5.5 0 0 0 0 .68l20.79 20.79a.5.5 0 0 0 .68 0l1.36-1.35a.5.5 0 0 0 0-.68zM84.15 73.83a.46.46 0 0 0-.68 0l-1.36 1.36a.48.48 0 0 0 0 .67l33.33 33.33a.5.5 0 0 0 .68 0l1.35-1.35a.46.46 0 0 0 0-.68zM88.34 69.63a.45.45 0 0 0-.67 0L86.31 71a.45.45 0 0 0 0 .67l37.46 37.46a.5.5 0 0 0 .68 0l1.35-1.35a.45.45 0 0 0 0-.68zM92.48 65.5a.46.46 0 0 0-.68 0l-1.36 1.36a.48.48 0 0 0 0 .67l41.66 41.66a.5.5 0 0 0 .68 0l1.35-1.35a.45.45 0 0 0 0-.68zM142.47 107.09L96.68 61.3a.46.46 0 0 0-.68 0l-1.36 1.36a.48.48 0 0 0 0 .67l45.79 45.79a.5.5 0 0 0 .68 0l1.36-1.35a.46.46 0 0 0 0-.68zM67.48 90.5a.45.45 0 0 0-.68 0l-1.35 1.35a.46.46 0 0 0 0 .68l16.6 16.59a.48.48 0 0 0 .67 0l1.36-1.35a.46.46 0 0 0 0-.68zM63.35 94.63a.45.45 0 0 0-.68 0L61.32 96a.45.45 0 0 0 0 .68l12.46 12.46a.5.5 0 0 0 .68 0l1.35-1.35a.45.45 0 0 0 0-.68zM59.15 98.76a.46.46 0 0 0-.68 0l-1.35 1.35a.5.5 0 0 0 0 .68l8.33 8.33a.5.5 0 0 0 .68 0l1.35-1.35a.5.5 0 0 0 0-.68zM55 103a.46.46 0 0 0-.68 0l-1.35 1.35a.46.46 0 0 0 0 .68l4.13 4.13a.5.5 0 0 0 .68 0l1.35-1.35a.5.5 0 0 0 0-.68z" class="b"/><path d="M64.7 29.33L35.51.2a.46.46 0 0 0-.68 0l-1.35 1.36a.46.46 0 0 0 0 .68l29.13 29.12a.48.48 0 0 0 .67 0L64.64 30a.53.53 0 0 0 .06-.67zM27.18.2a.46.46 0 0 0-.68 0l-1.35 1.36a.45.45 0 0 0 0 .68l33.32 33.32a.5.5 0 0 0 .68 0l1.36-1.35a.46.46 0 0 0 0-.68zM18.85.2a.46.46 0 0 0-.68 0l-1.35 1.36a.45.45 0 0 0 0 .68l37.45 37.45a.5.5 0 0 0 .68 0l1.36-1.35a.46.46 0 0 0 0-.68zM10.52.2a.46.46 0 0 0-.68 0L8.48 1.56a.5.5 0 0 0 0 .68l41.66 41.65a.5.5 0 0 0 .68 0l1.35-1.35a.5.5 0 0 0 0-.68zM2.18.2a.45.45 0 0 0-.67 0L.15 1.56a.46.46 0 0 0 0 .68L45.94 48a.48.48 0 0 0 .68 0L48 46.67a.5.5 0 0 0 0-.67z" class="c"/><path d="M64.7 79.39L46.62 61.3a.46.46 0 0 0-.68 0l-1.35 1.36a.48.48 0 0 0 0 .67l18.08 18.09a.5.5 0 0 0 .68 0l1.35-1.36a.58.58 0 0 0 0-.67zM42.49 65.5a.46.46 0 0 0-.68 0l-1.35 1.36a.44.44 0 0 0 0 .67l18.08 18.09a.5.5 0 0 0 .68 0l1.35-1.36a.44.44 0 0 0 0-.67zM38.29 69.63a.46.46 0 0 0-.68 0L36.26 71a.44.44 0 0 0 0 .67l18.08 18.08a.5.5 0 0 0 .68 0l1.35-1.35a.45.45 0 0 0 0-.68zM34.16 73.76a.46.46 0 0 0-.68 0l-1.36 1.36a.46.46 0 0 0 0 .68l18.09 18.08a.5.5 0 0 0 .68 0l1.35-1.35a.5.5 0 0 0 0-.68zM30 78a.46.46 0 0 0-.68 0l-1.36 1.36a.46.46 0 0 0 0 .68L46 98.08a.5.5 0 0 0 .68 0L48 96.73a.46.46 0 0 0 0-.68zM25.82 82.1a.44.44 0 0 0-.67 0l-1.36 1.35a.46.46 0 0 0 0 .68l18.09 18.08a.5.5 0 0 0 .68 0l1.35-1.35a.46.46 0 0 0 0-.68zM21.69 86.3a.44.44 0 0 0-.67 0l-1.36 1.35a.46.46 0 0 0 0 .68l18.09 18.08a.48.48 0 0 0 .67 0l1.36-1.35a.5.5 0 0 0 0-.68zM17.49 90.43a.44.44 0 0 0-.67 0l-1.36 1.35a.5.5 0 0 0 0 .68l16.6 16.59a.47.47 0 0 0 .67 0l1.36-1.35a.5.5 0 0 0 0-.68zM13.23 94.69a.46.46 0 0 0-.68 0l-1.36 1.36a.46.46 0 0 0 0 .68l12.47 12.46a.48.48 0 0 0 .67 0l1.36-1.35a.5.5 0 0 0 0-.68zM9.09 98.83a.44.44 0 0 0-.67 0l-1.36 1.35a.5.5 0 0 0 0 .68l8.33 8.33a.5.5 0 0 0 .68 0l1.36-1.35a.5.5 0 0 0 0-.68zM5 103a.45.45 0 0 0-.68 0l-1.35 1.35a.46.46 0 0 0 0 .68l4.13 4.13a.5.5 0 0 0 .68 0l1.35-1.35a.45.45 0 0 0 0-.68z" class="b"/><path d="M154 50.33h-5.21V23.64h6.63L162.85 41h.34l7.45-17.34h6.64v26.67h-5.21V33.94h-.27L165 50.33h-3.72L154.32 34h-.27v16.33zM202.62 50.33v-25.4l5.38-1.36v26.76zM210.27 29.67h5.82L220.36 45h.34l4.2-15.37h5.76l-7 20.66h-6.09zM245.36 44.43h5.08a6.92 6.92 0 0 1-3.12 4.57 10.93 10.93 0 0 1-6.3 1.69 9.47 9.47 0 0 1-7.31-2.84C232 46 231.06 43.42 231.06 40s.89-6 2.65-7.92a10.47 10.47 0 0 1 14.36-.08 10.91 10.91 0 0 1 2.57 7.66v1.69h-14.16v.27a5.58 5.58 0 0 0 1.29 3.66 4.43 4.43 0 0 0 3.39 1.35 6.44 6.44 0 0 0 2.71-.54 3.49 3.49 0 0 0 1.49-1.66zm-4.41-11a4.19 4.19 0 0 0-3.11 1.22 4.79 4.79 0 0 0-1.36 3.19h8.81a5 5 0 0 0-1.22-3.25 4.4 4.4 0 0 0-3.07-1.2zM253.69 50.33V29.67H259V33h.34a4.39 4.39 0 0 1 1.9-2.58 5.77 5.77 0 0 1 3.38-1 5.9 5.9 0 0 1 2.1.27v4.94a9 9 0 0 0-1.15-.2 11.88 11.88 0 0 0-1.42-.14 5.14 5.14 0 0 0-3.59 1.22 4.46 4.46 0 0 0-1.36 3.39v11.43zM269.54 50.33V29.67h5.28V33h.34a5.71 5.71 0 0 1 2.44-2.78 7.78 7.78 0 0 1 4-1 6.73 6.73 0 0 1 5.28 2 8.22 8.22 0 0 1 1.9 5.69v13.42h-5.42V38.27a4.66 4.66 0 0 0-1-3.25 3.68 3.68 0 0 0-2.91-1.08 4.15 4.15 0 0 0-3.19 1.21 4.42 4.42 0 0 0-1.26 3.26v11.92zM148.77 59.27H160a9.35 9.35 0 0 1 6.77 2.57 9.25 9.25 0 0 1 2.58 6.78 8.87 8.87 0 0 1-2.64 6.7 9.74 9.74 0 0 1-7 2.58h-5.35V86h-5.62V59.27zm5.69 4.61v9.34h4.06a5.4 5.4 0 0 0 3.79-1.22 4.48 4.48 0 0 0 1.36-3.45 4.64 4.64 0 0 0-1.36-3.55 5.4 5.4 0 0 0-3.79-1.22h-4.06zM192.73 85.89V65.3H198v3.32h.34a5.66 5.66 0 0 1 2.44-2.78 7.74 7.74 0 0 1 4-1 6.73 6.73 0 0 1 5.29 2 8.21 8.21 0 0 1 1.93 5.71v13.34h-5.42V73.83a4.67 4.67 0 0 0-1-3.25 3.71 3.71 0 0 0-2.91-1.08 4.12 4.12 0 0 0-3.19 1.22 4.39 4.39 0 0 0-1.27 3.28v11.82h-5.48zM236.75 85.89V60.56l5.42-1.36v26.69zM248.54 93.41a13.39 13.39 0 0 1-2.1-.07v-4.4a6.7 6.7 0 0 0 3.66-.48 2.7 2.7 0 0 0 1.22-1.69l.2-.75-7.25-20.72h6l4.34 15.64h.39l4.33-15.64h5.76L258 86.23a11.45 11.45 0 0 1-3.46 5.62 9.89 9.89 0 0 1-6 1.56zM268.86 65.3v-4.81l5.42-1.42v6.23h4.4v4.47h-4.4v9.28a2.44 2.44 0 0 0 .68 2 2.77 2.77 0 0 0 2 .61 10.23 10.23 0 0 0 1.56-.07v4.14a17.39 17.39 0 0 1-2.71.27c-2.51 0-4.27-.41-5.35-1.29s-1.63-2.3-1.63-4.34v-10.6h-2.37l1.36-4.47zM282.54 85.89V65.3H288v20.59zM282.54 63.4v-4.06H288v4.06zM334 85.89V60.56l5.41-1.36v26.69zM304.83 80.13a2.86 2.86 0 0 1-.88 1 4.32 4.32 0 0 1-2.71.81 4 4 0 0 1-3.39-1.62 7.72 7.72 0 0 1-1.22-4.68 7.32 7.32 0 0 1 1.22-4.6 3.94 3.94 0 0 1 3.39-1.63 4.16 4.16 0 0 1 2.78.88 6.94 6.94 0 0 1 .74.82h5.42a7.51 7.51 0 0 0-2.51-4.14 9.67 9.67 0 0 0-6.43-2.1 9.8 9.8 0 0 0-7.45 2.78q-2.64 2.75-2.64 7.93c0 3.45.88 6.09 2.64 8s4.2 2.84 7.45 2.84a9.71 9.71 0 0 0 6.43-2 7.63 7.63 0 0 0 2.51-4.2zM182.77 73h.68v-.27c0-2.71-1.7-3.66-4-3.66a11.1 11.1 0 0 0-5.69 2l-2-3.73a13.82 13.82 0 0 1 8.12-2.57c5.42 0 9.28 3 9.28 8.26v12.86h-5.42v-3.18a6.6 6.6 0 0 1-6.29 3.65c-3.73 0-7.05-2.3-7.05-6.43.11-6.57 8.98-6.93 12.37-6.93zm-3.93 9.42c2.71 0 4.67-2.92 4.67-5.42v-.48h-.88c-2.64 0-6.91.34-6.91 3.26 0 1.3 1.02 2.59 3.12 2.59zM192.52 37.25h.68V37c0-2.71-1.69-3.65-4-3.65a11.14 11.14 0 0 0-5.69 2l-2-3.73a13.84 13.84 0 0 1 8.17-2.62c5.42 0 9.28 3 9.28 8.26v12.93h-5.42V47a6.62 6.62 0 0 1-6.3 3.66c-3.73 0-7.05-2.31-7.05-6.44.07-6.49 8.95-6.97 12.33-6.97zm-3.93 9.49c2.71 0 4.68-2.91 4.68-5.42v-.48h-.88c-2.64 0-6.91.34-6.91 3.26 0 1.35 1.01 2.64 3.11 2.64zM226.32 73h.68v-.27c0-2.73-1.69-3.73-4-3.73a11.1 11.1 0 0 0-5.69 2l-2-3.73a13.84 13.84 0 0 1 8.13-2.57c5.42 0 9.28 3 9.28 8.26v12.93h-5.42v-3.18a6.62 6.62 0 0 1-6.3 3.65c-3.73 0-7-2.3-7-6.43.06-6.57 9-6.93 12.32-6.93zm-3.93 9.42c2.71 0 4.68-2.92 4.68-5.42v-.48h-.88c-2.64 0-6.91.34-6.91 3.26 0 1.3 1.01 2.59 3.11 2.59zM324.2 72.88h.68v-.27c0-2.71-1.69-3.65-4-3.65a11.14 11.14 0 0 0-5.69 2l-2-3.73a13.84 13.84 0 0 1 8.13-2.57c5.42 0 9.28 3 9.28 8.26v12.9h-5.42v-3.11a6.62 6.62 0 0 1-6.3 3.65c-3.73 0-7.05-2.3-7.05-6.43.11-6.57 8.98-7.05 12.37-7.05zm-3.93 9.49c2.73 0 4.73-2.92 4.73-5.37v-.48h-.88c-2.65 0-6.91.34-6.91 3.26-.05 1.3.96 2.59 3.06 2.59z" class="d"/><path d="M251.52 106.75v-6.3h-3.12v1.49h1.29v4.81c0 1.7.88 2.64 2.37 2.64a4.83 4.83 0 0 0 2.51-.74v-1.49a5.14 5.14 0 0 1-2.17.81c-.41 0-.88-.13-.88-1.22M225.65 100.32a8.81 8.81 0 0 0-3.12.61v12.8h1.83v-4.61a6.57 6.57 0 0 0 1.69.27 4.25 4.25 0 0 0 4.34-4.53c-.07-3.39-2.51-4.54-4.74-4.54m2.77 4.54c0 1.82-1 3.11-2.57 3.11a3.8 3.8 0 0 1-1.49-.34v-5.69a4.73 4.73 0 0 1 1.22-.2c1.76 0 2.84 1.15 2.84 3.12M235.4 100.25c-2.71 0-4 2.3-4 4.54a5 5 0 0 0 1.36 3.59 4.08 4.08 0 0 0 3.05 1 6.16 6.16 0 0 0 3-.81v-1.35a6.5 6.5 0 0 1-2.58.81 2.57 2.57 0 0 1-1.89-.61 3 3 0 0 1-.95-2h6v-.54c0-2.85-1.56-4.61-3.93-4.61m-2 3.66a2.21 2.21 0 0 1 2-2.24c1.22 0 2 .75 2.1 2.24zM242.38 104.86c0-1.9 1.08-3.19 2.84-3.19a5.36 5.36 0 0 1 1.9.48v-1.49a5.9 5.9 0 0 0-2.1-.41 4.41 4.41 0 0 0-4.68 4.61 4.18 4.18 0 0 0 4.2 4.47 6.93 6.93 0 0 0 2.92-.68v-1.49a5.11 5.11 0 0 1-2.44.74c-1.63 0-2.64-1.28-2.64-3M253.08 97.4h-1.56v3.05h3.12v-1.42h-1.56V97.4zM261.88 100.45h1.76v8.67h-1.76zM217 103.3a.84.84 0 0 1 .21-1.49 5.69 5.69 0 0 1 3.45.2v-1.42a8 8 0 0 0-2.3-.41c-2.1 0-3.52 1-3.52 2.58 0 3.25 4.53 2.43 4.53 4.13 0 .81-.74 1.08-1.69 1.08a7.32 7.32 0 0 1-3.05-.81v1.62a8.15 8.15 0 0 0 3 .55c2.37 0 3.59-1.09 3.59-2.71 0-2.44-3.11-2.44-4.2-3.32M267.44 103.3a.8.8 0 0 1 .2-1.43 5.44 5.44 0 0 1 3.39.21v-1.42a8 8 0 0 0-2.3-.41c-2.1 0-3.46 1-3.46 2.51 0 3.25 4.47 2.43 4.47 4.13 0 .81-.68 1.08-1.69 1.08a7.32 7.32 0 0 1-3.05-.81v1.62a8.15 8.15 0 0 0 3 .55c2.37 0 3.59-1.09 3.59-2.65.07-2.5-3.05-2.5-4.13-3.38M257.82 101.06v-.61H256v8.67h1.83v-6.57a2.78 2.78 0 0 1 2.78-.74v-1.56a4.23 4.23 0 0 0-2.78.81M208.1 103.64c0-2.24-.81-3.19-2.91-3.19a6.48 6.48 0 0 0-2.51.61v1a4.79 4.79 0 0 1 2.51-.68c1.42 0 1.9.75 1.9 2.17v.4h-.21c-2.16 0-5.21.14-5.21 3 0 .74.4 2.37 2.77 2.37a3.05 3.05 0 0 0 2.71-1.56v1.35h1a14.22 14.22 0 0 1-.07-1.76zm-.95 1.76c0 .95-.06 3-2.5 3-1 0-1.76-.41-1.76-1.56 0-1.9 2.16-2 4-2h.27v.54zM281.46 101.4a6.21 6.21 0 0 1 1.83.41l.07-1a6.94 6.94 0 0 0-2-.34 4.13 4.13 0 0 0-4.2 4.47c0 2.37 1.36 4.47 4.07 4.47a7.13 7.13 0 0 0 2.17-.27l-.07-1a5.76 5.76 0 0 1-1.9.41c-1.89 0-3.05-1.62-3.05-3.52-.06-2.24 1.09-3.66 3.12-3.66M288.44 100.45c-2.78 0-3.93 2.1-3.93 4.47s1.22 4.47 3.93 4.47 3.93-2.1 3.93-4.47-1.16-4.47-3.93-4.47m0 8c-1.83 0-2.85-1.56-2.85-3.53s1-3.52 2.85-3.52 2.84 1.56 2.84 3.52-1 3.53-2.84 3.53M303 100.45a2.87 2.87 0 0 0-2.71 1.83 2.15 2.15 0 0 0-2.23-1.83 2.71 2.71 0 0 0-2.65 1.63v-1.42h-1a18.91 18.91 0 0 1 .07 2v6.5h1v-4.67c0-2.1 1.15-3.12 2.3-3.12 1.36 0 1.83 1 1.83 2.17v5.62h1v-4.67c0-2.1 1.15-3.12 2.3-3.12 1.36 0 1.83 1 1.83 2.17v5.62h1v-5.86a2.73 2.73 0 0 0-2.78-2.85M311.87 100.45a2.9 2.9 0 0 0-2.71 1.76l.07-1.55h-1v12h1v-4.96a2.64 2.64 0 0 0 2.64 1.63c2.31 0 3.53-1.9 3.53-4.47s-1-4.41-3.53-4.41m-.13 8c-1.9 0-2.51-2-2.51-3.53s.68-3.52 2.51-3.52 2.5 1.9 2.5 3.52-.54 3.53-2.5 3.53M323.25 103.64c0-2.24-.81-3.19-2.91-3.19a6.52 6.52 0 0 0-2.51.61v1a4.79 4.79 0 0 1 2.51-.68c1.42 0 1.9.75 1.9 2.17v.4H322c-2.16 0-5.21.14-5.21 3 0 .74.4 2.37 2.78 2.37a3 3 0 0 0 2.7-1.56v1.35h1a14.22 14.22 0 0 1-.07-1.76zm-.95 1.76c0 .95-.06 3-2.5 3-.95 0-1.76-.41-1.76-1.56 0-1.9 2.17-2 4-2h.27v.54zM329.55 100.45a2.79 2.79 0 0 0-2.77 1.7v-1.49h-1a18.91 18.91 0 0 1 .07 2v6.5h1v-4.67c0-1.42.61-3.12 2.51-3.12 1.42 0 2 1 2 2.64v5.15h1v-5.46c.07-1.83-.75-3.25-2.85-3.25M339.92 100.66l-2.44 7-2.37-7H334l3 8.6-.21.74c-.34 1.09-.61 1.83-1.56 1.83a2.46 2.46 0 0 1-.81-.13l-.07.88a6.74 6.74 0 0 0 1.16.13c1.15 0 1.76-1.15 2.16-2.3l3.39-9.75z" class="e"/></svg>