<?xml version="1.0" encoding="UTF-8"?>
<svg id="Layer_2" data-name="Layer 2" xmlns="http://www.w3.org/2000/svg" viewBox="0 0 616.18 200.18">
  <defs>
    <style>
      .cls-1 {
        fill: #0096b4;
      }

      .cls-2 {
        fill: #13110c;
      }

      .cls-3 {
        fill: #5bb570;
      }

      .cls-4 {
        fill: #006776;
      }
    </style>
  </defs>
  <g id="Layer_1-2" data-name="Layer 1">
    <g>
      <g>
        <path class="cls-2" d="M276.99,92.53h-9.57v-48.72h12.17l13.64,31.73h.62l13.67-31.73h12.14v48.72h-9.57v-29.9h-.55l-12.55,29.9h-6.87l-12.58-29.9h-.55v29.9Z"/>
        <path class="cls-2" d="M365.93,92.53v-46.4l9.95-2.44v48.84h-9.95Z"/>
        <path class="cls-2" d="M379.97,54.82h10.7l7.79,28.1h.62l7.73-28.1h10.5l-13.02,37.71h-11.21l-13.09-37.71Z"/>
        <path class="cls-2" d="M444.11,81.79h9.26c-.75,3.58-2.66,6.4-5.73,8.46-3.07,2.06-6.9,3.09-11.5,3.09-5.74,0-10.22-1.71-13.44-5.14-3.21-3.43-4.82-8.21-4.82-14.34s1.62-10.97,4.85-14.53c3.24-3.56,7.66-5.33,13.26-5.33s9.9,1.68,13.01,5.03c3.11,3.35,4.67,8.02,4.67,14.02v3.04h-25.88v.51c.07,2.8.87,5.02,2.41,6.65,1.54,1.63,3.61,2.44,6.2,2.44,1.96,0,3.6-.34,4.92-1.01,1.32-.67,2.24-1.63,2.77-2.89ZM436.04,61.62c-2.3,0-4.2.74-5.69,2.22-1.49,1.48-2.33,3.44-2.51,5.88h16.07c-.11-2.51-.87-4.48-2.27-5.93-1.4-1.45-3.27-2.17-5.59-2.17Z"/>
        <path class="cls-2" d="M459.35,92.53v-37.71h9.64v6.02h.62c.5-1.91,1.64-3.5,3.42-4.75,1.78-1.25,3.83-1.88,6.15-1.88,1.66,0,2.94.16,3.83.48v9.06c-.39-.16-1.08-.3-2.07-.43-.99-.12-1.85-.19-2.58-.19-2.71,0-4.9.76-6.56,2.29-1.66,1.53-2.5,3.6-2.5,6.22v20.89h-9.95Z"/>
        <path class="cls-2" d="M488.37,92.53v-37.71h9.64v6.05h.62c.87-2.12,2.35-3.79,4.44-5.03,2.1-1.23,4.52-1.85,7.28-1.85,4.19,0,7.44,1.23,9.73,3.69,2.29,2.46,3.44,5.95,3.44,10.46v24.37h-9.95v-22.02c0-2.6-.61-4.57-1.83-5.91-1.22-1.34-3-2.02-5.35-2.02s-4.42.75-5.88,2.24c-1.46,1.49-2.19,3.48-2.19,5.97v21.74h-9.95Z"/>
        <path class="cls-2" d="M267.42,108.95h20.58c5.08,0,9.2,1.57,12.36,4.7,3.16,3.13,4.74,7.25,4.74,12.36s-1.63,9.15-4.89,12.27c-3.26,3.12-7.5,4.68-12.72,4.68h-9.74v14.7h-10.32v-48.72ZM277.75,117.43v17.16h7.49c2.99,0,5.29-.74,6.92-2.2,1.63-1.47,2.44-3.58,2.44-6.34s-.81-4.91-2.43-6.39c-1.62-1.48-3.92-2.22-6.91-2.22h-7.52Z"/>
        <path class="cls-2" d="M347.8,157.66v-37.71h9.64v6.05h.62c.87-2.12,2.35-3.79,4.44-5.03,2.1-1.23,4.52-1.85,7.28-1.85,4.19,0,7.44,1.23,9.73,3.69,2.29,2.46,3.44,5.95,3.44,10.46v24.37h-9.95v-22.02c0-2.6-.61-4.57-1.83-5.91-1.22-1.34-3-2.02-5.35-2.02s-4.42.75-5.88,2.24c-1.46,1.49-2.19,3.48-2.19,5.97v21.74h-9.95Z"/>
        <path class="cls-2" d="M428.34,157.66v-46.4l9.95-2.44v48.84h-9.95Z"/>
        <path class="cls-2" d="M449.96,171.44c-2.12,0-3.38-.03-3.79-.1v-8.03c.34.07,1.09.1,2.26.1,1.87,0,3.34-.33,4.43-.99,1.08-.66,1.83-1.71,2.24-3.15l.34-1.37-13.23-37.95h10.97l7.93,28.58h.62l7.93-28.58h10.53l-12.99,38.29c-1.6,4.85-3.69,8.27-6.27,10.24-2.59,1.97-6.24,2.96-10.96,2.96Z"/>
        <path class="cls-2" d="M487.13,120.01v-8.84l9.95-2.56v11.4h8v8.15h-8v16.96c0,1.64.39,2.85,1.18,3.62.79.78,2.02,1.16,3.71,1.16,1.09,0,2.06-.05,2.91-.14v7.59c-1.53.3-3.18.44-4.96.44-4.58,0-7.86-.8-9.83-2.39-1.97-1.59-2.96-4.24-2.96-7.93v-19.32h-4.35l2.48-8.15h1.88Z"/>
        <path class="cls-2" d="M512.19,157.66v-37.71h9.95v37.71h-9.95Z"/>
        <path class="cls-2" d="M512.19,116.52v-7.39h9.95v7.39h-9.95Z"/>
        <path class="cls-2" d="M606.23,157.66v-46.4l9.95-2.44v48.84h-9.95Z"/>
        <path class="cls-2" d="M552.89,147.07c-.41.7-.93,1.29-1.57,1.78-1.29.98-2.96,1.47-5.01,1.47-2.69,0-4.76-1-6.21-2.99-1.45-1.99-2.17-4.86-2.17-8.6s.72-6.52,2.17-8.48c1.45-1.96,3.52-2.94,6.21-2.94,2.07,0,3.75.53,5.04,1.59.54.44.97.97,1.34,1.55h9.92c-.76-3.05-2.26-5.56-4.53-7.51-2.93-2.53-6.85-3.79-11.78-3.79-5.9,0-10.45,1.7-13.64,5.09-3.19,3.4-4.79,8.23-4.79,14.49s1.6,11.18,4.8,14.61c3.2,3.43,7.74,5.15,13.62,5.15,4.85,0,8.76-1.25,11.73-3.74,2.36-1.99,3.9-4.56,4.64-7.67h-9.79Z"/>
        <path class="cls-2" d="M329.59,133.92h1.26v-.52c0-4.98-3.12-6.69-7.28-6.69-5.43,0-10.41,3.64-10.41,3.64l-3.57-6.77s5.87-4.68,14.87-4.68c9.96,0,17,5.5,17,15.09v23.72h-9.94v-3.12c0-1.49,0-2.68,0-2.68h0c.08,0-2.9,6.69-11.52,6.69-6.76,0-12.86-4.24-12.86-11.82,0-12.04,16.28-12.86,22.45-12.86ZM322.38,151.25c4.98,0,8.55-5.35,8.55-9.96v-.89h-1.64c-4.83,0-12.64.67-12.64,5.95,0,2.53,1.86,4.91,5.72,4.91Z"/>
        <path class="cls-2" d="M347.46,68.71h1.26v-.52c0-4.98-3.12-6.69-7.28-6.69-5.43,0-10.41,3.64-10.41,3.64l-3.57-6.77s5.87-4.68,14.87-4.68c9.96,0,17,5.5,17,15.09v23.72h-9.94v-3.12c0-1.49,0-2.68,0-2.68h0c.08,0-2.9,6.69-11.52,6.69-6.76,0-12.86-4.24-12.86-11.82,0-12.04,16.28-12.86,22.45-12.86ZM340.25,86.03c4.98,0,8.55-5.35,8.55-9.96v-.89h-1.64c-4.83,0-12.64.67-12.64,5.95,0,2.53,1.86,4.91,5.72,4.91Z"/>
        <path class="cls-2" d="M409.31,133.92h1.26v-.52c0-4.98-3.12-6.69-7.28-6.69-5.43,0-10.41,3.64-10.41,3.64l-3.57-6.77s5.87-4.68,14.87-4.68c9.96,0,17,5.5,17,15.09v23.72h-9.94v-3.12c0-1.49,0-2.68,0-2.68h0c.08,0-2.9,6.69-11.52,6.69-6.76,0-12.86-4.24-12.86-11.82,0-12.04,16.28-12.86,22.45-12.86ZM402.1,151.25c4.98,0,8.55-5.35,8.55-9.96v-.89h-1.64c-4.83,0-12.64.67-12.64,5.95,0,2.53,1.86,4.91,5.72,4.91Z"/>
        <path class="cls-2" d="M588.37,133.88h1.26v-.52c0-4.98-3.12-6.69-7.28-6.69-5.43,0-10.41,3.64-10.41,3.64l-3.57-6.77s5.87-4.68,14.87-4.68c9.96,0,17,5.5,17,15.09v23.72h-9.94v-3.12c0-1.49,0-2.68,0-2.68h0c.08,0-2.9,6.69-11.52,6.69-6.76,0-12.86-4.24-12.86-11.82,0-12.04,16.28-12.86,22.45-12.86ZM581.16,151.21c4.98,0,8.55-5.35,8.55-9.96v-.89h-1.64c-4.83,0-12.64.67-12.64,5.95,0,2.53,1.86,4.91,5.72,4.91Z"/>
      </g>
      <g>
        <path class="cls-4" d="M92.06,99.88l2.36,2.36c.73.73,1.69,1.1,2.65,1.1s1.92-.37,2.65-1.1L193.21,8.77c1.47-1.47,1.47-3.84,0-5.31l-2.36-2.36c-1.47-1.47-3.84-1.47-5.31,0l-93.48,93.48c-1.47,1.47-1.47,3.84,0,5.31Z"/>
        <path class="cls-4" d="M106.35,114.18l2.36,2.36c.73.73,1.69,1.1,2.65,1.1s1.92-.37,2.65-1.1L221.72,8.84c1.47-1.47,1.47-3.84,0-5.31l-2.36-2.36c-1.47-1.47-3.84-1.47-5.31,0l-107.7,107.7c-1.47,1.47-1.47,3.84,0,5.31Z"/>
        <path class="cls-4" d="M120.64,128.47l2.36,2.36c.73.73,1.69,1.1,2.65,1.1s1.92-.37,2.65-1.1L250.29,8.84c1.47-1.47,1.47-3.84,0-5.31l-2.36-2.36c-1.47-1.47-3.84-1.47-5.31,0l-121.98,121.98c-1.47,1.47-1.47,3.84,0,5.31Z"/>
        <path class="cls-3" d="M75.89,110.81l-2.37,2.37c-1.47,1.47-1.47,3.84,0,5.31l30.91,30.91c.73.73,1.69,1.1,2.65,1.1s1.92-.37,2.65-1.1l2.37-2.37c.7-.7,1.1-1.66,1.1-2.66s-.4-1.95-1.1-2.65l-30.91-30.91c-1.47-1.47-3.84-1.47-5.31,0Z"/>
        <path class="cls-3" d="M145.82,141.5c-1.47-1.47-3.84-1.47-5.31,0l-2.37,2.37c-1.47,1.47-1.47,3.84,0,5.31l49.87,49.87c.73.73,1.69,1.1,2.65,1.1s1.92-.37,2.65-1.1l2.37-2.37c1.47-1.47,1.47-3.84,0-5.31l-49.87-49.87Z"/>
        <path class="cls-3" d="M131.59,155.72c-1.47-1.47-3.84-1.47-5.31,0l-2.37,2.37c-1.47,1.47-1.47,3.84,0,5.31l35.65,35.65c.7.7,1.66,1.1,2.65,1.1s1.95-.4,2.65-1.1l2.37-2.37c.7-.7,1.1-1.66,1.1-2.65s-.4-1.95-1.1-2.65l-35.65-35.65Z"/>
        <path class="cls-3" d="M160.1,127.21c-1.47-1.47-3.84-1.47-5.31,0l-2.37,2.37c-1.47,1.47-1.47,3.84,0,5.31l64.16,64.16c.73.73,1.69,1.1,2.65,1.1s1.92-.37,2.65-1.1l2.37-2.37c1.47-1.47,1.47-3.84,0-5.31l-64.16-64.16Z"/>
        <path class="cls-3" d="M252.83,191.37l-78.44-78.44c-1.41-1.41-3.9-1.41-5.31,0l-2.37,2.37c-1.47,1.47-1.47,3.84,0,5.31l78.44,78.44c.7.7,1.66,1.1,2.65,1.1s1.95-.4,2.65-1.1l2.37-2.37c1.47-1.47,1.47-3.84,0-5.31Z"/>
        <path class="cls-1" d="M104.43,55.11c.73.73,1.69,1.1,2.65,1.1s1.92-.37,2.65-1.1l2.37-2.37c1.47-1.47,1.47-3.84,0-5.31L65.92,1.24c-1.47-1.47-3.84-1.47-5.31,0l-2.37,2.37c-1.47,1.47-1.47,3.84,0,5.31l46.19,46.19Z"/>
        <path class="cls-1" d="M90.14,69.39c.73.73,1.69,1.1,2.65,1.1s1.92-.37,2.65-1.1l2.37-2.37c1.47-1.47,1.47-3.84,0-5.31L37.35,1.24c-1.47-1.47-3.84-1.47-5.31,0l-2.37,2.37c-1.47,1.47-1.47,3.84,0,5.31l60.47,60.47Z"/>
        <path class="cls-1" d="M78.51,84.78c1,0,1.95-.4,2.65-1.1l2.37-2.37c1.47-1.47,1.47-3.84,0-5.31L8.78,1.24C7.37-.17,4.88-.17,3.47,1.24L1.1,3.61c-1.47,1.47-1.47,3.84,0,5.31l74.76,74.76c.7.7,1.66,1.1,2.65,1.1Z"/>
        <path class="cls-3" d="M97.88,161.25c1.47-1.47,1.47-3.84,0-5.31l-30.91-30.91c-1.47-1.47-3.84-1.47-5.31,0l-2.37,2.37c-1.47,1.47-1.47,3.84,0,5.31l30.91,30.91c.73.73,1.69,1.1,2.65,1.1s1.92-.37,2.65-1.1l2.37-2.37Z"/>
        <path class="cls-3" d="M52.69,139.32c-1.47-1.47-3.84-1.47-5.31,0l-2.37,2.37c-.7.7-1.1,1.66-1.1,2.65s.4,1.95,1.1,2.65l30.91,30.91c.7.7,1.66,1.1,2.65,1.1s1.95-.4,2.66-1.1l2.37-2.37c1.47-1.47,1.47-3.84,0-5.31l-30.91-30.91Z"/>
        <path class="cls-3" d="M117.31,170c-1.41-1.41-3.9-1.41-5.31,0l-2.37,2.37c-1.47,1.47-1.47,3.84,0,5.31l21.36,21.36c.7.7,1.66,1.1,2.65,1.1s1.95-.4,2.66-1.1l2.37-2.37c1.47-1.47,1.47-3.84,0-5.31l-21.36-21.36Z"/>
        <path class="cls-3" d="M103.02,184.29c-1.47-1.47-3.84-1.47-5.31,0l-2.37,2.37c-1.47,1.47-1.47,3.84,0,5.31l7.08,7.08c.73.73,1.69,1.1,2.65,1.1s1.92-.37,2.65-1.1l2.37-2.37c1.47-1.47,1.47-3.84,0-5.31l-7.08-7.08Z"/>
        <path class="cls-3" d="M38.47,153.54c-1.47-1.47-3.84-1.47-5.31,0l-2.37,2.37c-1.47,1.47-1.47,3.84,0,5.31l30.91,30.91c.73.73,1.69,1.1,2.65,1.1s1.92-.37,2.65-1.1l2.37-2.37c1.47-1.47,1.47-3.84,0-5.31l-30.91-30.91Z"/>
        <path class="cls-3" d="M47.48,191.37l-2.09-2.09h0s-21.33-21.33-21.33-21.33c-1.47-1.47-3.84-1.47-5.31,0l-2.37,2.37c-1.47,1.47-1.47,3.84,0,5.31l21.33,21.33h0s2.09,2.09,2.09,2.09c.7.7,1.66,1.1,2.65,1.1s1.95-.4,2.65-1.1l2.37-2.37c.7-.7,1.1-1.66,1.1-2.65s-.4-1.95-1.1-2.65Z"/>
        <path class="cls-3" d="M19.06,191.4l-2.21-2.21-7.02-7.02c-1.47-1.47-3.84-1.47-5.31,0l-2.37,2.37c-1.47,1.47-1.47,3.84,0,5.31l7.02,7.02,2.21,2.21c.73.73,1.69,1.1,2.65,1.1s1.92-.37,2.65-1.1l2.37-2.37c1.47-1.47,1.47-3.84,0-5.31Z"/>
      </g>
    </g>
  </g>
</svg>