<?xml version="1.0" encoding="UTF-8"?>
<svg id="Layer_2" data-name="Layer 2" xmlns="http://www.w3.org/2000/svg" xmlns:xlink="http://www.w3.org/1999/xlink" viewBox="0 0 220.63 125.67">
  <defs>
    <style>
      .cls-1, .cls-2, .cls-3, .cls-4, .cls-5 {
        fill: none;
      }

      .cls-2 {
        stroke-width: 42.1px;
      }

      .cls-2, .cls-3, .cls-4 {
        stroke: #ebf1f2;
      }

      .cls-2, .cls-3, .cls-4, .cls-5 {
        stroke-linecap: round;
      }

      .cls-3 {
        stroke-width: 21.05px;
      }

      .cls-4 {
        stroke-width: 28.07px;
      }

      .cls-5 {
        stroke-width: 7.02px;
      }

      .cls-5, .cls-6 {
        stroke: #3d7b87;
        stroke-linejoin: round;
      }

      .cls-6 {
        fill: #ebf1f2;
        stroke-width: 5.61px;
      }

      .cls-7 {
        clip-path: url(#clippath);
      }
    </style>
    <clipPath id="clippath">
      <rect class="cls-1" x="116.73" y="73.92" width="51.75" height="51.75"/>
    </clipPath>
  </defs>
  <g id="Layer_1-2" data-name="Layer 1">
    <g>
      <path class="cls-2" d="M41.09,34.74h35.11"/>
      <path class="cls-4" d="M178.88,60.85h27.72"/>
      <path class="cls-3" d="M10.53,76.39h9.24"/>
      <path class="cls-6" d="M74.69,2.81h50.33l21.61,21.49v74.7c0,3.1-2.51,5.61-5.61,5.61h-66.32c-3.1,0-5.61-2.51-5.61-5.61V8.42c0-3.1,2.51-5.61,5.61-5.61Z"/>
      <g class="cls-7">
        <path class="cls-5" d="M164.16,121.36l-9.7-9.7M159.85,97.64c0,10.72-8.69,19.4-19.4,19.4s-19.4-8.69-19.4-19.4,8.69-19.41,19.4-19.41,19.4,8.69,19.4,19.41Z"/>
      </g>
    </g>
  </g>
</svg>