<svg width="136" height="135" viewBox="0 0 136 135" fill="none" xmlns="http://www.w3.org/2000/svg">
<path d="M57.3667 93.3653H23C17.4771 93.3653 13 88.8882 13 83.3653V31.8654C13 26.3425 17.4772 21.8654 23 21.8654H113C118.523 21.8654 123 26.3425 123 31.8654V83.3653C123 88.8882 118.523 93.3653 113 93.3653H78.6333M57.3667 93.3653H78.6333M57.3667 93.3653V103.135C57.3667 108.658 52.8895 113.135 47.3667 113.135H46.3667M78.6333 93.3653V103.135C78.6333 108.658 83.1105 113.135 88.6333 113.135H89.6333" stroke="#333333" stroke-width="5" stroke-linecap="round" stroke-linejoin="round"/>
<path d="M55.7759 45.2015V70.1403C55.7759 72.4714 58.3183 73.9118 60.3179 72.7136L80.6246 60.5458C82.5443 59.3955 82.5742 56.6242 80.6798 55.4329L60.373 42.662C58.3752 41.4056 55.7759 42.8414 55.7759 45.2015Z" fill="#00a2c2" stroke="#00a2c2" stroke-width="4"/>
</svg>
