<svg xmlns="http://www.w3.org/2000/svg" style="display:none">
  <symbol id="search" viewBox="0 0 24 24">
    <circle cx="11" cy="11" r="6" fill="none" stroke="currentColor" stroke-width="2"/>
    <path d="M16 16l5 5" fill="none" stroke="currentColor" stroke-linecap="round" stroke-width="2"/>
  </symbol>
  <symbol id="arrow-right" viewBox="0 0 24 24">
    <path d="M5 12h12" fill="none" stroke="currentColor" stroke-linecap="round" stroke-width="2"/>
    <path d="M13 7l5 5-5 5" fill="none" stroke="currentColor" stroke-linecap="round" stroke-linejoin="round" stroke-width="2"/>
  </symbol>
  <symbol id="play" viewBox="0 0 24 24">
    <path d="M8 6l10 6-10 6z" fill="currentColor"/>
  </symbol>
  <symbol id="chevron-up" viewBox="0 0 24 24">
    <path d="M6 15l6-6 6 6" fill="none" stroke="currentColor" stroke-linecap="round" stroke-linejoin="round" stroke-width="2"/>
  </symbol>
  <symbol id="chevron-down" viewBox="0 0 24 24">
    <path d="M6 9l6 6 6-6" fill="none" stroke="currentColor" stroke-linecap="round" stroke-linejoin="round" stroke-width="2"/>
  </symbol>
  <symbol id="facebook" viewBox="0 0 24 24">
    <circle cx="12" cy="12" r="10" fill="currentColor"/>
    <path d="M13.2 19v-5.8h2l.3-2.3h-2.3V9.4c0-.7.2-1.2 1.2-1.2h1.3V6.1c-.2 0-1-.1-1.9-.1-1.9 0-3.2 1.2-3.2 3.4v1.5H9v2.3h1.6V19h2.6z" fill="#fff"/>
  </symbol>
  <symbol id="twitter" viewBox="0 0 24 24">
    <path d="M22 6.1c-.7.3-1.5.6-2.3.6.8-.5 1.4-1.2 1.7-2.1-.8.5-1.7.8-2.6 1-1.5-1.6-4.1-1.6-5.7 0-1.1 1.1-1.5 2.7-1 4.2-3.2-.2-6.2-1.8-8.2-4.3-1 1.8-.5 4.1 1.1 5.2-.6 0-1.2-.2-1.8-.5 0 2 1.4 3.7 3.3 4.1-.6.2-1.3.2-1.9.1.5 1.7 2.1 2.9 3.9 2.9-1.5 1.2-3.4 1.8-5.3 1.8H3c1.9 1.2 4.1 1.8 6.4 1.8 7.6 0 11.8-6.3 11.8-11.8v-.5c.8-.6 1.5-1.3 2-2.1z" fill="currentColor"/>
  </symbol>
  <symbol id="rss" viewBox="0 0 24 24">
    <circle cx="6.5" cy="17.5" r="1.8" fill="currentColor"/>
    <path d="M4.7 11.3a8 8 0 0 1 8 8" fill="none" stroke="currentColor" stroke-linecap="round" stroke-width="2"/>
    <path d="M4.7 6.7A12.6 12.6 0 0 1 17.3 19.3" fill="none" stroke="currentColor" stroke-linecap="round" stroke-width="2"/>
  </symbol>
  <symbol id="instagram" viewBox="0 0 24 24">
    <rect x="4" y="4" width="16" height="16" rx="4" ry="4" fill="none" stroke="currentColor" stroke-width="2"/>
    <circle cx="12" cy="12" r="3.5" fill="none" stroke="currentColor" stroke-width="2"/>
    <circle cx="17" cy="7" r="1" fill="currentColor"/>
  </symbol>
  <symbol id="linkedin" viewBox="0 0 24 24">
    <rect x="4" y="4" width="16" height="16" rx="2" ry="2" fill="currentColor"/>
    <path d="M8 10h2v6H8zm1-3a1.2 1.2 0 1 1 0 2.4A1.2 1.2 0 0 1 9 7zm2.8 3H14v.8c.4-.6 1.1-1 2.1-1 1.8 0 2.9 1.2 2.9 3.6V16h-2.3v-2.3c0-1.1-.4-1.8-1.3-1.8s-1.4.6-1.4 1.8V16h-2.2z" fill="#fff"/>
  </symbol>
  <symbol id="youtube" viewBox="0 0 24 24">
    <path d="M21.6 8.2c-.2-.9-.9-1.6-1.8-1.8C18.3 6 12 6 12 6s-6.3 0-7.8.4c-.9.2-1.6.9-1.8 1.8C2 9.7 2 12 2 12s0 2.3.4 3.8c.2.9.9 1.6 1.8 1.8C5.7 18 12 18 12 18s6.3 0 7.8-.4c.9-.2 1.6-.9 1.8-1.8.4-1.5.4-3.8.4-3.8s0-2.3-.4-3.8z" fill="currentColor"/>
    <path d="M10 15.2V8.8L15.2 12z" fill="#fff"/>
  </symbol>
</svg>
