<?xml version="1.0" encoding="UTF-8"?>
<svg id="Layer_2" data-name="Layer 2" xmlns="http://www.w3.org/2000/svg" viewBox="0 0 717.05 500">
  <defs>
    <style>
      .cls-1 {
        fill: #0f97b8;
      }

      .cls-2 {
        fill: #2d2d2d;
      }
    </style>
  </defs>
  <g id="Layer_1-2" data-name="Layer 1">
    <g>
      <path class="cls-2" d="M305.48.28l351.27-.28c30.52,3.06,55.92,27.35,60.29,57.7l-.04,246.22c-5.15,30.85-30.82,54.11-61.96,56.89l-170.22-.03c-23-3.93-23.75-36.23-.78-40.96l166.68-.09c14.41-1.29,25.25-12.42,26.13-26.88V67.96c-1.14-14.46-10.61-25.3-25.23-26.93h-337.88c-13.23.53-23.42,10.01-25.97,22.76-2.44,35.62,3,75.06-.04,110.23-2.12,24.54-34.64,27.43-41,4.17,2.13-38.27-3.09-80.07-.11-117.92,2.37-30.08,29.14-56.52,58.86-59.98Z"/>
      <g>
        <path class="cls-1" d="M261.19,357.35v85.06c0,25.53-29.43,48.32-53.42,50.04-30.28,2.17-63.33-1.51-93.88-.26-13.26-3.14-17.12-10.51-17.75-23.3-.05-.96.55-2.34-.85-2.11-11.52,32.62-52,44.33-78.7,20.95C.35,473.51-.8,456.82.3,436.39c7.72-52.93,10.93-106.85,18.98-159.69,6.5-42.67,19.2-70.3,62.51-83.7,51.06-15.8,96.83-16.39,147.34,1.92,36.08,13.08,60.22,48.75,88.05,74.41,3.39,3.12,7.24,5.9,10.46,9.27,21.25-7.94,41.26-20.46,62.1-29.1,63.16-26.2,105.03,60.42,45.8,93.65-31.5,17.67-68.37,30.16-100.23,47.7-35.66,14.51-49.51-14.97-74.12-33.49ZM96.99,463.35c2.78-2.83,4.25-6.55,7.74-8.92,2.66-1.81,7.55-3.44,10.73-3.81,28.32-3.3,62.49,2.26,91.44-.07,7-1.27,11.73-6.18,12.42-13.23,2.66-41.05-3.7-86.92-.03-127.4,1.51-16.59,17.84-25.43,32.43-17.06,21.5,17.47,41.11,39.01,62.48,56.38,1.11.9,3.39,2.91,4.7,2.95l98.21-46.27c10.15-6.9,4.38-21.94-8.22-19.32-26.15,10.86-50.93,27.08-78.12,34.75-10.2.98-19.96-2.51-28.1-8.46l-75.8-73.83c-43.17-19.63-86.33-20.5-131.41-6.73-23.68,7.23-28.58,16.43-33.28,40.25l-21.44,176.47c.84,8.96,10.11,13.12,15.4,4.7l11.36-88.66c9.03-21.19,38.45-16.43,40.63,6.44l-11.14,91.85Z"/>
        <path class="cls-1" d="M143.83,15.65c66.04-7.01,94.6,51.34,73.52,108.54-24.87,67.51-107.05,61.84-126.78-6.2-12.88-44.41.88-96.79,53.26-102.34ZM151.54,56.71c-9.77.81-21.61,6.37-22.93,17.25-1.72,14.15-.59,34.71,8.59,46.16,19.46,24.26,42.01,1.05,44.35-22.31s-1.97-43.42-30.01-41.1Z"/>
      </g>
    </g>
  </g>
</svg>